<svg width="10" height="16" viewBox="0 0 10 16" fill="none" xmlns="http://www.w3.org/2000/svg">
<path d="M5.83333 6.49984H9.58333L9.16667 8.1665H5.83333V15.6665H4.16667V8.1665H0.833332V6.49984H4.16667V4.93984C4.16667 3.454 4.32167 2.91484 4.61167 2.3715C4.89584 1.83468 5.33484 1.39568 5.87167 1.1115C6.415 0.821504 6.95417 0.666504 8.44 0.666504C8.875 0.666504 9.25667 0.708171 9.58333 0.791504V2.33317H8.44C7.33667 2.33317 7.00083 2.39817 6.65833 2.5815C6.405 2.7165 6.21667 2.90484 6.08167 3.15817C5.89833 3.50067 5.83333 3.8365 5.83333 4.93984V6.49984Z" fill="#CCD2E9"/>
</svg>
