<svg width="28" height="24" viewBox="0 0 28 24" fill="none" xmlns="http://www.w3.org/2000/svg">
<path d="M26 0C26.3536 0 26.6928 0.140476 26.9428 0.390524C27.1929 0.640573 27.3333 0.979711 27.3333 1.33333V8.66667C26.4493 8.66667 25.6014 9.01786 24.9763 9.64298C24.3512 10.2681 24 11.1159 24 12C24 12.8841 24.3512 13.7319 24.9763 14.357C25.6014 14.9821 26.4493 15.3333 27.3333 15.3333V22.6667C27.3333 23.0203 27.1929 23.3594 26.9428 23.6095C26.6928 23.8595 26.3536 24 26 24H2.00001C1.64638 24 1.30724 23.8595 1.0572 23.6095C0.807147 23.3594 0.666672 23.0203 0.666672 22.6667V15.3333C1.55073 15.3333 2.39857 14.9821 3.02369 14.357C3.64882 13.7319 4.00001 12.8841 4.00001 12C4.00001 11.1159 3.64882 10.2681 3.02369 9.64298C2.39857 9.01786 1.55073 8.66667 0.666672 8.66667V1.33333C0.666672 0.979711 0.807147 0.640573 1.0572 0.390524C1.30724 0.140476 1.64638 0 2.00001 0H26ZM19.3333 8H8.66667V16H19.3333V8Z" fill="#0059F7"/>
</svg>
